<?xml version="1.0" encoding="UTF-8"?>
<!DOCTYPE svg PUBLIC "-//W3C//DTD SVG 1.1//EN" "http://www.w3.org/Graphics/SVG/1.1/DTD/svg11.dtd">
<svg xmlns="http://www.w3.org/2000/svg" version="1.1" width="300px" height="300px" style="shape-rendering:geometricPrecision; text-rendering:geometricPrecision; image-rendering:optimizeQuality; fill-rule:evenodd; clip-rule:evenodd" xmlns:xlink="http://www.w3.org/1999/xlink">
<g><path style="opacity:1" fill="#f9faf9" d="M 144.5,84.5 C 152.514,82.7611 158.347,85.4278 162,92.5C 163.426,102.754 163.926,113.088 163.5,123.5C 162.167,123.5 160.833,123.5 159.5,123.5C 159.666,114.827 159.5,106.16 159,97.5C 158.586,97.9574 158.086,98.2907 157.5,98.5C 154.472,89.882 149.639,88.5487 143,94.5C 141.609,104.1 141.109,113.767 141.5,123.5C 140.167,123.5 138.833,123.5 137.5,123.5C 137.334,114.161 137.5,104.827 138,95.5C 138.374,94.5838 138.874,93.7504 139.5,93C 138.572,92.6121 137.905,91.9454 137.5,91C 139.065,87.9329 141.398,85.7662 144.5,84.5 Z"/></g>
<g><path style="opacity:1" fill="#f9faf9" d="M 122.5,127.5 C 141.188,128.498 159.855,128.831 178.5,128.5C 177.975,129.192 177.308,129.692 176.5,130C 159.167,133.333 141.833,133.333 124.5,130C 123.244,129.583 122.577,128.75 122.5,127.5 Z"/></g>
<g><path style="opacity:1" fill="#f9faf9" d="M 104.5,132.5 C 135.167,137.833 165.833,137.833 196.5,132.5C 196.5,133.5 196.5,134.5 196.5,135.5C 181.303,138.316 165.97,139.983 150.5,140.5C 135.03,139.983 119.697,138.316 104.5,135.5C 104.5,134.5 104.5,133.5 104.5,132.5 Z"/></g>
<g><path style="opacity:1" fill="#f9faf9" d="M 85.5,138.5 C 128.833,146.5 172.167,146.5 215.5,138.5C 215.5,139.5 215.5,140.5 215.5,141.5C 172.167,149.5 128.833,149.5 85.5,141.5C 85.5,140.5 85.5,139.5 85.5,138.5 Z"/></g>
<g><path style="opacity:1" fill="#f9faf9" d="M 7.5,165.5 C 11.8333,165.5 16.1667,165.5 20.5,165.5C 20.5,166.5 20.5,167.5 20.5,168.5C 19.5,168.5 18.5,168.5 17.5,168.5C 19.3536,174.893 21.5202,181.226 24,187.5C 26.1749,181.639 28.3416,175.806 30.5,170C 29.2412,169.077 27.9079,168.243 26.5,167.5C 26.6667,167.167 26.8333,166.833 27,166.5C 30.3936,165.544 33.8936,165.211 37.5,165.5C 37.5,166.5 37.5,167.5 37.5,168.5C 36.1779,168.33 35.0113,168.663 34,169.5C 30.5275,178.087 27.3608,186.754 24.5,195.5C 23.1667,195.5 21.8333,195.5 20.5,195.5C 16.9171,185.054 12.5838,175.054 7.5,165.5 Z"/></g>
<g><path style="opacity:1" fill="#f9faf9" d="M 55.5,165.5 C 56.9765,175.254 58.3098,185.254 59.5,195.5C 56.1016,195.82 52.7683,195.487 49.5,194.5C 49.8076,193.692 50.3076,193.025 51,192.5C 51.1667,188.667 51.3333,184.833 51.5,181C 51.4323,176.648 50.7656,172.481 49.5,168.5C 51.444,167.199 53.444,166.199 55.5,165.5 Z"/></g>
<g><path style="opacity:1" fill="#f9faf9" d="M 67.5,165.5 C 68.5,165.5 69.5,165.5 70.5,165.5C 69.9931,175.65 70.6597,185.65 72.5,195.5C 69.1667,195.5 65.8333,195.5 62.5,195.5C 63.6512,190.798 64.3179,185.964 64.5,181C 64.4323,176.648 63.7656,172.481 62.5,168.5C 64.1446,167.304 65.8113,166.304 67.5,165.5 Z"/></g>
<g><path style="opacity:1" fill="#f9faf9" d="M 198.5,165.5 C 204.909,165.183 211.243,165.683 217.5,167C 222.342,170.694 222.675,174.694 218.5,179C 225.09,184.182 225.09,189.182 218.5,194C 211.924,195.377 205.257,195.877 198.5,195.5C 198.5,194.5 198.5,193.5 198.5,192.5C 199.5,192.5 200.5,192.5 201.5,192.5C 201.5,184.5 201.5,176.5 201.5,168.5C 200.5,168.5 199.5,168.5 198.5,168.5C 198.5,167.5 198.5,166.5 198.5,165.5 Z M 207.5,168.5 C 215.49,168.086 217.49,171.253 213.5,178C 211.527,178.495 209.527,178.662 207.5,178.5C 207.5,175.167 207.5,171.833 207.5,168.5 Z M 207.5,181.5 C 212.573,180.53 215.906,182.363 217.5,187C 217.507,188.812 216.84,190.312 215.5,191.5C 212.916,192.393 210.249,192.726 207.5,192.5C 207.5,188.833 207.5,185.167 207.5,181.5 Z"/></g>
<g><path style="opacity:1" fill="#f9faf9" d="M 276.5,165.5 C 277.5,165.5 278.5,165.5 279.5,165.5C 279.793,169.437 279.46,173.27 278.5,177C 280.544,177.048 282.544,176.548 284.5,175.5C 286.614,176.034 288.448,177.034 290,178.5C 290.954,184.227 292.121,189.893 293.5,195.5C 290.102,195.82 286.768,195.487 283.5,194.5C 283.808,193.692 284.308,193.025 285,192.5C 285.499,188.179 285.666,183.846 285.5,179.5C 282.654,179.03 280.321,179.863 278.5,182C 279.833,185.333 279.833,188.667 278.5,192C 279.91,192.368 280.91,193.201 281.5,194.5C 277.833,195.833 274.167,195.833 270.5,194.5C 270.833,193.5 271.5,192.833 272.5,192.5C 272.833,188.667 273.167,184.833 273.5,181C 273.432,176.648 272.766,172.481 271.5,168.5C 273.145,167.304 274.811,166.304 276.5,165.5 Z"/></g>
<g><path style="opacity:1" fill="#f9faf9" d="M 39.5,168.5 C 44.5867,168.284 45.5867,170.118 42.5,174C 38.5369,174.118 37.5369,172.284 39.5,168.5 Z"/></g>
<g><path style="opacity:1" fill="#f9faf9" d="M 173.5,170.5 C 181.582,172.087 182.582,175.753 176.5,181.5C 177.919,183.336 179.086,185.336 180,187.5C 182.123,185.143 181.956,182.976 179.5,181C 179.833,180.5 180.167,180 180.5,179.5C 182.702,180.78 184.868,180.78 187,179.5C 187.167,180 187.333,180.5 187.5,181C 185.088,183.149 183.421,185.815 182.5,189C 184.266,192.563 186.599,193.063 189.5,190.5C 190.282,192.329 189.616,193.829 187.5,195C 184.394,195.844 181.561,195.344 179,193.5C 175.019,196.162 171.019,196.162 167,193.5C 165.627,191.305 165.294,188.971 166,186.5C 170.666,184.018 171.5,180.684 168.5,176.5C 169.21,173.586 170.876,171.586 173.5,170.5 Z M 173.5,173.5 C 174.5,173.5 175.5,173.5 176.5,173.5C 175.572,180.092 174.572,180.092 173.5,173.5 Z M 171.5,184.5 C 173.6,186.498 175.6,188.665 177.5,191C 171.37,193.034 169.37,190.867 171.5,184.5 Z"/></g>
<g><path style="opacity:1" fill="#f9faf9" d="M 42.5,175.5 C 44.2923,180.745 45.1256,186.412 45,192.5C 45.6924,193.025 46.1924,193.692 46.5,194.5C 42.8333,195.833 39.1667,195.833 35.5,194.5C 39.1179,189.429 39.4512,184.096 36.5,178.5C 38.5939,177.482 40.5939,176.482 42.5,175.5 Z"/></g>
<g><path style="opacity:1" fill="#f9faf9" d="M 83.5,175.5 C 89.882,175.328 93.2153,178.328 93.5,184.5C 89.5,184.5 85.5,184.5 81.5,184.5C 80.4987,191 83.1653,193.5 89.5,192C 90.5433,190.024 91.8767,189.524 93.5,190.5C 88.465,196.813 82.965,197.146 77,191.5C 73.9401,183.962 76.1068,178.628 83.5,175.5 Z M 83.5,178.5 C 85.7159,178.275 87.3826,179.108 88.5,181C 86.1667,181.667 83.8333,181.667 81.5,181C 82.3805,180.292 83.0472,179.458 83.5,178.5 Z"/></g>
<g><path style="opacity:1" fill="#f9faf9" d="M 102.5,175.5 C 103.75,175.577 104.583,176.244 105,177.5C 107.901,174.682 110.401,175.016 112.5,178.5C 112.291,179.086 111.957,179.586 111.5,180C 109.209,180.015 107.042,180.182 105,180.5C 103.805,185.678 104.639,190.345 107.5,194.5C 103.893,195.489 100.226,195.823 96.5,195.5C 97.4824,192.622 98.149,189.622 98.5,186.5C 98.7086,183.546 98.0419,180.879 96.5,178.5C 98.7451,177.792 100.745,176.792 102.5,175.5 Z"/></g>
<g><path style="opacity:1" fill="#f9faf9" d="M 121.5,175.5 C 130.307,176.137 134.141,180.803 133,189.5C 128.034,196.24 122.034,197.24 115,192.5C 110.792,184.282 112.958,178.616 121.5,175.5 Z M 121.5,178.5 C 123.722,178.178 125.556,178.845 127,180.5C 127.667,183.833 127.667,187.167 127,190.5C 124.383,194.476 121.716,194.476 119,190.5C 118.333,187.5 118.333,184.5 119,181.5C 119.698,180.309 120.531,179.309 121.5,178.5 Z"/></g>
<g><path style="opacity:1" fill="#f9faf9" d="M 235.5,175.5 C 244.705,175.864 248.538,180.531 247,189.5C 244.081,195.025 239.581,196.858 233.5,195C 227.828,192.232 225.994,187.732 228,181.5C 229.707,178.41 232.207,176.41 235.5,175.5 Z M 235.5,178.5 C 240.096,178.428 242.429,180.762 242.5,185.5C 242.656,189.682 240.822,192.349 237,193.5C 234.034,191.993 232.534,189.493 232.5,186C 232.828,183.171 233.828,180.671 235.5,178.5 Z"/></g>
<g><path style="opacity:1" fill="#f9faf9" d="M 259.5,175.5 C 263.797,175.394 267.13,177.061 269.5,180.5C 266.63,184.585 264.63,184.085 263.5,179C 261.299,178.175 259.466,178.675 258,180.5C 257.333,183.833 257.333,187.167 258,190.5C 261.525,193.203 264.859,192.87 268,189.5C 268.5,189.833 269,190.167 269.5,190.5C 266.682,195.029 262.682,196.529 257.5,195C 251.258,191.184 249.925,186.017 253.5,179.5C 255.29,177.684 257.29,176.351 259.5,175.5 Z"/></g>
<g><path style="opacity:1" fill="#f9faf9" d="M 134.5,176.5 C 138.226,176.177 141.893,176.511 145.5,177.5C 144.624,178.251 143.624,178.751 142.5,179C 143.855,182.212 145.355,185.378 147,188.5C 148.467,185.242 149.633,181.908 150.5,178.5C 149.325,178.719 148.325,178.386 147.5,177.5C 150.5,176.167 153.5,176.167 156.5,177.5C 155.758,178.287 154.925,178.953 154,179.5C 150.667,186.833 147.333,194.167 144,201.5C 140.726,205.792 138.726,205.458 138,200.5C 141.265,199.952 143.432,198.119 144.5,195C 141.238,188.633 137.905,182.466 134.5,176.5 Z"/></g>
<g><path style="opacity:1" fill="#f9faf9" d="M 9.5,201.5 C 51.172,201.167 92.8387,201.5 134.5,202.5C 113.667,202.833 92.8333,203.167 72,203.5C 50.8225,203.5 29.9891,202.833 9.5,201.5 Z"/></g>
<g><path style="opacity:1" fill="#f9faf9" d="M 146.5,201.5 C 195.505,201.167 244.505,201.5 293.5,202.5C 269,202.833 244.5,203.167 220,203.5C 195.157,203.5 170.657,202.833 146.5,201.5 Z"/></g>
<g><path style="opacity:1" fill="#f9faf9" d="M 127.5,214.5 C 128.787,215.871 129.453,217.705 129.5,220C 129.464,222.094 129.131,224.094 128.5,226C 129.308,226.308 129.975,226.808 130.5,227.5C 128.235,228.647 125.902,228.814 123.5,228C 126.116,224.541 126.116,221.041 123.5,217.5C 124.901,216.479 126.235,215.479 127.5,214.5 Z"/></g>
<g><path style="opacity:1" fill="#f9faf9" d="M 136.5,214.5 C 139.5,214.5 142.5,214.5 145.5,214.5C 144.84,218.313 143.674,221.979 142,225.5C 141.282,228.234 139.782,228.9 137.5,227.5C 139.039,224.254 140.706,221.088 142.5,218C 140.193,217.221 138.193,217.721 136.5,219.5C 135.948,217.997 135.948,216.331 136.5,214.5 Z"/></g>
<g><path style="opacity:1" fill="#f9faf9" d="M 155.5,214.5 C 156.5,214.5 157.5,214.5 158.5,214.5C 158.142,217.898 158.808,221.065 160.5,224C 159.293,225.3 158.626,226.8 158.5,228.5C 157.5,228.5 156.5,228.5 155.5,228.5C 155.5,227.5 155.5,226.5 155.5,225.5C 153.5,225.5 151.5,225.5 149.5,225.5C 151.226,221.716 153.226,218.05 155.5,214.5 Z M 154.5,219.5 C 155.404,220.209 155.737,221.209 155.5,222.5C 154.448,222.649 153.448,222.483 152.5,222C 153.381,221.292 154.047,220.458 154.5,219.5 Z"/></g>
<g><path style="opacity:1" fill="#f9faf9" d="M 168.5,214.5 C 171.272,214.22 173.772,214.887 176,216.5C 176.711,218.367 176.211,219.867 174.5,221C 177.167,223.333 177.167,225.667 174.5,228C 171.331,228.978 168.497,228.478 166,226.5C 165.376,224.536 165.876,222.869 167.5,221.5C 166.073,218.884 166.406,216.551 168.5,214.5 Z M 169.5,216.5 C 170.978,216.238 172.311,216.571 173.5,217.5C 171.537,220.194 170.203,219.861 169.5,216.5 Z M 169.5,222.5 C 174.622,224.239 174.622,225.573 169.5,226.5C 169.5,225.167 169.5,223.833 169.5,222.5 Z"/></g>
</svg>
