<?xml version="1.0" encoding="UTF-8"?>
<!DOCTYPE svg PUBLIC "-//W3C//DTD SVG 1.1//EN" "http://www.w3.org/Graphics/SVG/1.1/DTD/svg11.dtd">
<svg xmlns="http://www.w3.org/2000/svg" version="1.1" width="300px" height="300px" style="shape-rendering:geometricPrecision; text-rendering:geometricPrecision; image-rendering:optimizeQuality; fill-rule:evenodd; clip-rule:evenodd" xmlns:xlink="http://www.w3.org/1999/xlink">
<g><path style="opacity:1" fill="#f9faf9" d="M 108.5,104.5 C 126.881,101.793 142.381,107.126 155,120.5C 155.638,121.609 156.138,122.775 156.5,124C 151.867,127.655 146.867,130.822 141.5,133.5C 129.207,120.652 115.873,119.318 101.5,129.5C 93.7886,140.074 92.622,151.407 98,163.5C 107.005,175.959 118.505,178.793 132.5,172C 135.4,169.603 137.733,166.77 139.5,163.5C 132.532,162.503 125.532,162.17 118.5,162.5C 118.5,156.833 118.5,151.167 118.5,145.5C 133.167,145.5 147.833,145.5 162.5,145.5C 163.067,170.59 151.4,186.424 127.5,193C 107.851,195.914 92.351,189.414 81,173.5C 72.4194,157.155 72.4194,140.822 81,124.5C 87.63,114.275 96.7967,107.609 108.5,104.5 Z"/></g>
<g><path style="opacity:1" fill="#f9faf9" d="M 171.5,106.5 C 188.5,106.5 205.5,106.5 222.5,106.5C 222.5,112.167 222.5,117.833 222.5,123.5C 212.161,123.334 201.828,123.5 191.5,124C 192.833,128.667 192.833,133.333 191.5,138C 201.828,138.5 212.161,138.666 222.5,138.5C 222.5,144.833 222.5,151.167 222.5,157.5C 212.161,157.334 201.828,157.5 191.5,158C 192.487,169.085 192.821,180.252 192.5,191.5C 185.5,191.5 178.5,191.5 171.5,191.5C 171.5,163.167 171.5,134.833 171.5,106.5 Z"/></g>
<g><path style="opacity:1" fill="#f9faf9" d="M 28.5,119.5 C 34.7576,119.19 40.9242,119.524 47,120.5C 47.8072,126.416 47.6406,132.25 46.5,138C 52.8246,138.5 59.1579,138.666 65.5,138.5C 65.5,144.833 65.5,151.167 65.5,157.5C 59.1579,157.334 52.8246,157.5 46.5,158C 47.6406,163.75 47.8072,169.584 47,175.5C 40.9242,176.476 34.7576,176.81 28.5,176.5C 28.5,170.167 28.5,163.833 28.5,157.5C 22.7711,157.788 17.1045,157.454 11.5,156.5C 10.5046,150.872 10.1712,145.206 10.5,139.5C 16.4707,138.759 22.4707,138.425 28.5,138.5C 28.5,132.167 28.5,125.833 28.5,119.5 Z"/></g>
<g><path style="opacity:1" fill="#f9faf9" d="M 252.5,119.5 C 258.5,119.5 264.5,119.5 270.5,119.5C 270.5,125.833 270.5,132.167 270.5,138.5C 276.5,138.5 282.5,138.5 288.5,138.5C 288.5,144.833 288.5,151.167 288.5,157.5C 282.5,157.5 276.5,157.5 270.5,157.5C 270.5,163.833 270.5,170.167 270.5,176.5C 264.491,176.666 258.491,176.499 252.5,176C 251.167,170 251.167,164 252.5,158C 246.449,157.792 240.449,157.292 234.5,156.5C 233.505,150.872 233.171,145.206 233.5,139.5C 239.824,138.975 246.158,138.475 252.5,138C 251.186,131.834 251.186,125.667 252.5,119.5 Z"/></g>
</svg>
